<?xml version="1.0" encoding="UTF-8" standalone="no"?><svg xmlns="http://www.w3.org/2000/svg" xmlns:xlink="http://www.w3.org/1999/xlink" contentScriptType="application/ecmascript" contentStyleType="text/css" height="303px" preserveAspectRatio="none" style="width:757px;height:303px;" version="1.1" viewBox="0 0 757 303" width="757px" zoomAndPan="magnify"><defs><filter height="300%" id="f1lmf3zgucjf46" width="300%" x="-1" y="-1"><feGaussianBlur result="blurOut" stdDeviation="2.0"/><feColorMatrix in="blurOut" result="blurOut2" type="matrix" values="0 0 0 0 0 0 0 0 0 0 0 0 0 0 0 0 0 0 .4 0"/><feOffset dx="4.0" dy="4.0" in="blurOut2" result="blurOut3"/><feBlend in="SourceGraphic" in2="blurOut3" mode="normal"/></filter></defs><g><!--MD5=[4e9ef7432a6a5fa1db9d025f7a1ec6fd]
class Indicavel--><rect codeLine="4" fill="#FEFECE" filter="url(#f1lmf3zgucjf46)" height="77.9638" id="Indicavel" style="stroke:#A80036;stroke-width:1.5;" width="188" x="102" y="19.84"/><ellipse cx="167.75" cy="35.84" fill="#B4A7E5" rx="11" ry="11" style="stroke:#A80036;stroke-width:1.0;"/><path d="M163.7813,42.34 L163.7813,40.6369 L166.1406,40.3712 L166.1406,32.1681 L163.7813,31.9025 L163.7813,30.1994 L170.9219,30.1994 L170.9219,31.9025 L168.5,32.1681 L168.5,40.3712 L170.9219,40.6369 L170.9219,42.34 L163.7813,42.34 Z " fill="#000000"/><text fill="#000000" font-family="sans-serif" font-size="12" font-style="italic" lengthAdjust="spacing" textLength="48" x="188.25" y="40.496">Indicavel</text><line style="stroke:#A80036;stroke-width:1.5;" x1="103" x2="289" y1="51.84" y2="51.84"/><line style="stroke:#A80036;stroke-width:1.5;" x1="103" x2="289" y1="59.84" y2="59.84"/><rect fill="#F24D5C" height="6" style="stroke:#C82930;stroke-width:1.0;" width="6" x="110" y="67.84"/><text fill="#000000" font-family="sans-serif" font-size="11" lengthAdjust="spacing" textLength="103" x="122" y="75.5989">Boolean isElegivel();</text><rect fill="#F24D5C" height="6" style="stroke:#C82930;stroke-width:1.0;" width="6" x="110" y="82.8219"/><text fill="#000000" font-family="sans-serif" font-size="11" lengthAdjust="spacing" textLength="162" x="122" y="90.5808">void setNumeroDeIndicacoes();</text><!--MD5=[002a3db1b9d69a876c19a1a41f501567]
class Filme--><rect codeLine="9" fill="#FEFECE" filter="url(#f1lmf3zgucjf46)" height="118.6158" id="Filme" style="stroke:#A80036;stroke-width:1.5;" width="172" x="7" y="170.63"/><ellipse cx="53.25" cy="191.9741" fill="#ADD1B2" rx="11" ry="11" style="stroke:#A80036;stroke-width:1.0;"/><path d="M52.7188,198.896 Q50.9688,198.896 49.8281,198.1616 Q48.7031,197.4116 48.1406,196.0679 Q47.5938,194.7085 47.5938,192.9116 Q47.5938,190.8804 48.25,189.4272 Q48.9063,187.9741 50.1875,187.1929 Q51.4688,186.4116 53.3438,186.4116 Q54.2344,186.4116 54.9063,186.5991 Q55.5781,186.771 56.2656,187.1147 L55.4531,189.1304 Q54.8281,188.8179 54.2813,188.6929 Q53.75,188.5679 53.2656,188.5679 Q52.0938,188.5679 51.3906,189.0991 Q50.6875,189.6304 50.3906,190.5835 Q50.0938,191.5366 50.0938,192.8022 Q50.0938,194.8179 50.8125,195.7866 Q51.5313,196.7397 53.125,196.7397 Q53.7188,196.7397 54.3438,196.5835 Q54.9688,196.4272 55.7969,196.0522 L55.7969,198.271 Q55.0625,198.5835 54.2656,198.7397 Q53.4844,198.896 52.7188,198.896 Z " fill="#000000"/><text fill="#000000" font-family="sans-serif" font-size="12" font-style="italic" lengthAdjust="spacing" textLength="75" x="71.75" y="188.4581">«Component»</text><text fill="#000000" font-family="sans-serif" font-size="12" lengthAdjust="spacing" textLength="30" x="94.25" y="204.8022">Filme</text><line style="stroke:#A80036;stroke-width:1.5;" x1="8" x2="178" y1="213.3182" y2="213.3182"/><rect fill="none" height="6" style="stroke:#C82930;stroke-width:1.0;" width="6" x="15" y="221.3182"/><text fill="#000000" font-family="sans-serif" font-size="11" lengthAdjust="spacing" textLength="68" x="27" y="229.0771">String nome;</text><rect fill="none" height="6" style="stroke:#C82930;stroke-width:1.0;" width="6" x="15" y="236.3001"/><text fill="#000000" font-family="sans-serif" font-size="11" lengthAdjust="spacing" textLength="76" x="27" y="244.059">String genero;</text><ellipse cx="18" cy="254.282" fill="none" rx="3" ry="3" style="stroke:#038048;stroke-width:1.0;"/><text fill="#000000" font-family="sans-serif" font-size="11" lengthAdjust="spacing" textLength="89" x="27" y="259.0409">Boolean elegivel;</text><ellipse cx="18" cy="269.2639" fill="none" rx="3" ry="3" style="stroke:#038048;stroke-width:1.0;"/><text fill="#000000" font-family="sans-serif" font-size="11" lengthAdjust="spacing" textLength="146" x="27" y="274.0228">Short numeroDeIndicacoes;</text><line style="stroke:#A80036;stroke-width:1.5;" x1="8" x2="178" y1="281.2458" y2="281.2458"/><!--MD5=[8d764066fba3ef9ba1e1ef5efacf89e0]
class Ator--><rect codeLine="16" fill="#FEFECE" filter="url(#f1lmf3zgucjf46)" height="118.6158" id="Ator" style="stroke:#A80036;stroke-width:1.5;" width="172" x="214" y="170.63"/><ellipse cx="260.25" cy="191.9741" fill="#ADD1B2" rx="11" ry="11" style="stroke:#A80036;stroke-width:1.0;"/><path d="M259.7188,198.896 Q257.9688,198.896 256.8281,198.1616 Q255.7031,197.4116 255.1406,196.0679 Q254.5938,194.7085 254.5938,192.9116 Q254.5938,190.8804 255.25,189.4272 Q255.9063,187.9741 257.1875,187.1929 Q258.4688,186.4116 260.3438,186.4116 Q261.2344,186.4116 261.9063,186.5991 Q262.5781,186.771 263.2656,187.1147 L262.4531,189.1304 Q261.8281,188.8179 261.2813,188.6929 Q260.75,188.5679 260.2656,188.5679 Q259.0938,188.5679 258.3906,189.0991 Q257.6875,189.6304 257.3906,190.5835 Q257.0938,191.5366 257.0938,192.8022 Q257.0938,194.8179 257.8125,195.7866 Q258.5313,196.7397 260.125,196.7397 Q260.7188,196.7397 261.3438,196.5835 Q261.9688,196.4272 262.7969,196.0522 L262.7969,198.271 Q262.0625,198.5835 261.2656,198.7397 Q260.4844,198.896 259.7188,198.896 Z " fill="#000000"/><text fill="#000000" font-family="sans-serif" font-size="12" font-style="italic" lengthAdjust="spacing" textLength="75" x="278.75" y="188.4581">«Component»</text><text fill="#000000" font-family="sans-serif" font-size="12" lengthAdjust="spacing" textLength="24" x="304.25" y="204.8022">Ator</text><line style="stroke:#A80036;stroke-width:1.5;" x1="215" x2="385" y1="213.3182" y2="213.3182"/><rect fill="none" height="6" style="stroke:#C82930;stroke-width:1.0;" width="6" x="222" y="221.3182"/><text fill="#000000" font-family="sans-serif" font-size="11" lengthAdjust="spacing" textLength="68" x="234" y="229.0771">String nome;</text><rect fill="none" height="6" style="stroke:#C82930;stroke-width:1.0;" width="6" x="222" y="236.3001"/><text fill="#000000" font-family="sans-serif" font-size="11" lengthAdjust="spacing" textLength="111" x="234" y="244.059">String nacionalidade;</text><rect fill="none" height="6" style="stroke:#C82930;stroke-width:1.0;" width="6" x="222" y="251.282"/><text fill="#000000" font-family="sans-serif" font-size="11" lengthAdjust="spacing" textLength="89" x="234" y="259.0409">Boolean elegivel;</text><rect fill="none" height="6" style="stroke:#C82930;stroke-width:1.0;" width="6" x="222" y="266.2639"/><text fill="#000000" font-family="sans-serif" font-size="11" lengthAdjust="spacing" textLength="146" x="234" y="274.0228">Short numeroDeIndicacoes;</text><line style="stroke:#A80036;stroke-width:1.5;" x1="215" x2="385" y1="281.2458" y2="281.2458"/><!--MD5=[76b0fc3d0f87e8a9d87b17485c0cbf20]
class Indicacao--><rect codeLine="23" fill="#FEFECE" filter="url(#f1lmf3zgucjf46)" height="88.652" id="Indicacao" style="stroke:#A80036;stroke-width:1.5;" width="125" x="324.5" y="14.49"/><ellipse cx="349.4" cy="35.8341" fill="#ADD1B2" rx="11" ry="11" style="stroke:#A80036;stroke-width:1.0;"/><path d="M348.8688,42.756 Q347.1188,42.756 345.9781,42.0216 Q344.8531,41.2716 344.2906,39.9279 Q343.7438,38.5685 343.7438,36.7716 Q343.7438,34.7404 344.4,33.2872 Q345.0563,31.8341 346.3375,31.0529 Q347.6188,30.2716 349.4938,30.2716 Q350.3844,30.2716 351.0563,30.4591 Q351.7281,30.631 352.4156,30.9747 L351.6031,32.9904 Q350.9781,32.6779 350.4313,32.5529 Q349.9,32.4279 349.4156,32.4279 Q348.2438,32.4279 347.5406,32.9591 Q346.8375,33.4904 346.5406,34.4435 Q346.2438,35.3966 346.2438,36.6622 Q346.2438,38.6779 346.9625,39.6466 Q347.6813,40.5997 349.275,40.5997 Q349.8688,40.5997 350.4938,40.4435 Q351.1188,40.2872 351.9469,39.9122 L351.9469,42.131 Q351.2125,42.4435 350.4156,42.5997 Q349.6344,42.756 348.8688,42.756 Z " fill="#000000"/><text fill="#000000" font-family="sans-serif" font-size="12" font-style="italic" lengthAdjust="spacing" textLength="75" x="363.6" y="32.3181">«Component»</text><text fill="#000000" font-family="sans-serif" font-size="12" lengthAdjust="spacing" textLength="54" x="374.1" y="48.6622">Indicacao</text><line style="stroke:#A80036;stroke-width:1.5;" x1="325.5" x2="448.5" y1="57.1782" y2="57.1782"/><rect fill="none" height="6" style="stroke:#C82930;stroke-width:1.0;" width="6" x="332.5" y="65.1782"/><text fill="#000000" font-family="sans-serif" font-size="11" lengthAdjust="spacing" textLength="99" x="344.5" y="72.9371">Indicavel indicavel;</text><rect fill="none" height="6" style="stroke:#C82930;stroke-width:1.0;" width="6" x="332.5" y="80.1601"/><text fill="#000000" font-family="sans-serif" font-size="11" lengthAdjust="spacing" textLength="87" x="344.5" y="87.919">String categoria;</text><line style="stroke:#A80036;stroke-width:1.5;" x1="325.5" x2="448.5" y1="95.142" y2="95.142"/><!--MD5=[f741ee0996b0eec6d71c55bb51ed26f9]
class OscarService--><rect codeLine="28" fill="#FEFECE" filter="url(#f1lmf3zgucjf46)" height="103.6339" id="OscarService" style="stroke:#A80036;stroke-width:1.5;" width="259" x="484.5" y="7"/><ellipse cx="572.75" cy="28.3441" fill="#ADD1B2" rx="11" ry="11" style="stroke:#A80036;stroke-width:1.0;"/><path d="M572.2188,35.266 Q570.4688,35.266 569.3281,34.5316 Q568.2031,33.7816 567.6406,32.4379 Q567.0938,31.0785 567.0938,29.2816 Q567.0938,27.2504 567.75,25.7972 Q568.4063,24.3441 569.6875,23.5629 Q570.9688,22.7816 572.8438,22.7816 Q573.7344,22.7816 574.4063,22.9691 Q575.0781,23.141 575.7656,23.4847 L574.9531,25.5004 Q574.3281,25.1879 573.7813,25.0629 Q573.25,24.9379 572.7656,24.9379 Q571.5938,24.9379 570.8906,25.4691 Q570.1875,26.0004 569.8906,26.9535 Q569.5938,27.9066 569.5938,29.1722 Q569.5938,31.1879 570.3125,32.1566 Q571.0313,33.1097 572.625,33.1097 Q573.2188,33.1097 573.8438,32.9535 Q574.4688,32.7972 575.2969,32.4222 L575.2969,34.641 Q574.5625,34.9535 573.7656,35.1097 Q572.9844,35.266 572.2188,35.266 Z " fill="#000000"/><text fill="#000000" font-family="sans-serif" font-size="12" font-style="italic" lengthAdjust="spacing" textLength="49" x="605.75" y="24.8281">«Service»</text><text fill="#000000" font-family="sans-serif" font-size="12" lengthAdjust="spacing" textLength="74" x="593.25" y="41.1722">OscarService</text><line style="stroke:#A80036;stroke-width:1.5;" x1="485.5" x2="742.5" y1="49.6882" y2="49.6882"/><rect fill="none" height="6" style="stroke:#C82930;stroke-width:1.0;" width="6" x="492.5" y="57.6882"/><text fill="#000000" font-family="sans-serif" font-size="11" lengthAdjust="spacing" textLength="169" x="504.5" y="65.4471">ArrayList&lt;Indicacao&gt; indicacoes;</text><line style="stroke:#A80036;stroke-width:1.5;" x1="485.5" x2="742.5" y1="72.6701" y2="72.6701"/><ellipse cx="495.5" cy="83.6701" fill="#84BE84" rx="3" ry="3" style="stroke:#038048;stroke-width:1.0;"/><text fill="#000000" font-family="sans-serif" font-size="11" lengthAdjust="spacing" textLength="233" x="504.5" y="88.429">void adicionarIndicacao(Indicacao indicacao)</text><ellipse cx="495.5" cy="98.652" fill="#84BE84" rx="3" ry="3" style="stroke:#038048;stroke-width:1.0;"/><text fill="#000000" font-family="sans-serif" font-size="11" lengthAdjust="spacing" textLength="149" x="504.5" y="103.4109">void mostrarListaIndicados()</text><!--MD5=[5c781f81df866d3988a8c5506ede76ae]
reverse link Indicavel to Filme--><path d="M161.52,116.43 C151,133.7 139.42,152.72 128.81,170.14 " fill="none" id="Indicavel-backto-Filme" style="stroke:#A80036;stroke-width:1.0;stroke-dasharray:7.0,7.0;"/><polygon fill="none" points="155.46,112.93,171.84,99.49,167.42,120.21,155.46,112.93" style="stroke:#A80036;stroke-width:1.0;"/><!--MD5=[9a4c6cc570b3e74aefc31c67d0a8da96]
reverse link Indicavel to Ator--><path d="M230.81,116.43 C241.43,133.7 253.13,152.72 263.84,170.14 " fill="none" id="Indicavel-backto-Ator" style="stroke:#A80036;stroke-width:1.0;stroke-dasharray:7.0,7.0;"/><polygon fill="none" points="224.91,120.19,220.39,99.48,236.83,112.85,224.91,120.19" style="stroke:#A80036;stroke-width:1.0;"/><!--MD5=[de9776a74c1ec2bb0b7510397747e358]
@startuml

skin rose

interface Indicavel {
  -Boolean isElegivel();
  -void setNumeroDeIndicacoes();
}

class Filme <<Component>> implements Indicavel {
  -String nome;
  -String genero;
  +Boolean elegivel;
  +Short numeroDeIndicacoes;
}

class Ator <<Component>> implements Indicavel {
  -String nome;
  -String nacionalidade;
  -Boolean elegivel;
  -Short numeroDeIndicacoes;
}

class Indicacao <<Component>> {
  -Indicavel indicavel;
  -String categoria;
}

class OscarService <<Service>> {
  -ArrayList<Indicacao> indicacoes;
  +void adicionarIndicacao(Indicacao indicacao)
  +void mostrarListaIndicados()
}

@enduml

PlantUML version 1.2021.00(Sun Jan 10 07:25:05 BRT 2021)
(MIT source distribution)
Java Runtime: OpenJDK Runtime Environment
JVM: OpenJDK 64-Bit Server VM
Default Encoding: UTF-8
Language: en
Country: GB
--></g></svg>